# xmcd
# 
# Track frame offsets:
#     150
#     19123
#     42680
#     64105
#     87587
#     102725
#     123188
#     136142
#     150486
#     171604
#     188646
# 
# Disc length: 2795
# 
# Revision: 0
# Processed by: cddbd v1.5.2PL0 Copyright (c) Steve Scherf et al.
# Submitted via: fre:ac v1.0.27
# 
DISCID=990ae90b
DTITLE=Large Number Twelves - Long train Ride
DYEAR=2008
DGENRE=Blues
TTITLE0=All The Boys
TTITLE1=Give A Little Love
TTITLE2=Long Train Ride
TTITLE3=Shadow My Day
TTITLE4=Baby's Got A Brand New Toy
TTITLE5=Little Silver Tear
TTITLE6=Sailor's Grave
TTITLE7=When I Was A Boy
TTITLE8=Sunset
TTITLE9=Row A Boat
TTITLE10=Until Tomorrow
EXTD=
EXTT0=
EXTT1=
EXTT2=
EXTT3=
EXTT4=
EXTT5=
EXTT6=
EXTT7=
EXTT8=
EXTT9=
EXTT10=
PLAYORDER=
